<svg id="Layer_5" data-name="Layer 5" xmlns="http://www.w3.org/2000/svg" viewBox="0 0 200.09 315.8"><defs><style>.cls-1{fill:#1d4f36;}</style></defs><title>traceitLogo</title><path class="cls-1" d="M325.07,1256.78a100.81,100.81,0,0,1-63.37,11.88,95.69,95.69,0,0,1-41.22,127.71,16,16,0,0,1-21.34-6.19,95.68,95.68,0,0,1,33.73-130.08,101.1,101.1,0,0,1-10-177.7,95.75,95.75,0,0,0,1.62,146.54,93,93,0,0,0,12.38,8.62h0a95.86,95.86,0,0,0,21.73,9.32c1.74.51,3.47,1,5.21,1.36h0a94.75,94.75,0,0,0,39.56.73h0a95.72,95.72,0,0,0,71.34-60q-.79,3.87-1.92,7.74A100.75,100.75,0,0,1,325.07,1256.78Z" transform="translate(-174.66 -1082.4)"/></svg>